<svg xmlns="http://www.w3.org/2000/svg" viewBox="0 0 512 512"><title>print-icon</title><path d="M408.23,216H331.44V260c0,12.52-4.46,22.76-9.92,22.76h-131c-5.46,0-9.92-10.24-9.92-22.76V216H106.77A22.83,22.83,0,0,0,84,238.77V374.23A22.83,22.83,0,0,0,106.77,397H408.23A22.83,22.83,0,0,0,431,374.23V238.77A22.83,22.83,0,0,0,408.23,216Z" fill="none" stroke="#d8d8d8" stroke-miterlimit="10" stroke-width="38"/><path d="M205.38,102.29H321.52c5.46,0,9.92,10.24,9.92,22.76v0c0-12.52-4.46-22.76-9.92-22.76h-131c-5.46,0-9.92,10.24-9.92,22.76V260c0,12.52,4.46,22.76,9.92,22.76h131c5.46,0,9.92-10.24,9.92-22.76V181.71" fill="none" stroke="#d8d8d8" stroke-miterlimit="10" stroke-width="38"/></svg>