<svg xmlns="http://www.w3.org/2000/svg" xmlns:xlink="http://www.w3.org/1999/xlink" viewBox="0 0 512 512"><defs><linearGradient id="a" x1="149.48" y1="298.39" x2="362.52" y2="85.35" gradientUnits="userSpaceOnUse"><stop offset="0" stop-color="#1270e3"/><stop offset="1" stop-color="#59c2ff"/></linearGradient></defs><title>typhoon-sm</title><path d="M256,389.5l-150-247s0-20,76.5-20c36,0,73.5,20,73.5,20S292,123,332.5,123c60,0,73.5,19.5,73.5,19.5Zm73.5-267c-36,0-73.5,20-73.5,20s-36,22-76.5,22c-60,0-73.5-22-73.5-22l150,247,150-247S406,122.5,329.5,122.5ZM256,389.5,373.13,196.62s0-15.62-59.73-15.62c-28.12,0-57.4,15.62-57.4,15.62s-28.11,17.18-59.74,17.18c-46.85,0-57.39-17.18-57.39-17.18Zm0,0,80.25-132.15s0-10.69-40.93-10.69c-19.26,0-39.32,10.69-39.32,10.69s-19.26,11.77-40.93,11.77c-32.1,0-39.32-11.77-39.32-11.77Zm0,0L300.66,316s0-6-22.78-6c-10.71,0-21.88,6-21.88,6s-10.72,6.55-22.78,6.55c-17.86,0-21.88-6.55-21.88-6.55Z" fill="none" stroke-miterlimit="10" stroke-width="16" stroke="url(#a)"/></svg>